<svg width="688" height="624" viewBox="0 0 688 624" fill="none" xmlns="http://www.w3.org/2000/svg">
<path opacity="0.4" d="M624.612 75.4087C479.837 6.51599 415.974 194.908 316.143 225.905C216.399 271.252 120.22 218.174 60.8332 263.673C-33.3015 335.793 8.01527 461.962 68.2786 515.049C154.699 591.178 308.276 563.778 467.017 481.461C665.899 378.327 751.555 135.816 624.612 75.4087Z" fill="#98C3E8"/>
<path opacity="0.2" d="M143.503 150.498C148.503 162.998 133.503 182.498 112.003 188.998C93.5027 194.591 75.5027 193.998 70.5027 180.998C66.0796 169.498 80.0027 156.998 96.0027 150.498C112.003 143.998 138.503 137.998 143.503 150.498Z" fill="#98C3E8"/>
<path opacity="0.2" d="M307.004 124.999C303.113 115.06 316.82 91.8653 333.806 86.798C348.423 82.4378 362.115 72.1631 366.004 82.4995C369.444 91.6431 358.912 112.324 346.264 117.414C333.616 122.505 310.895 134.939 307.004 124.999Z" fill="#98C3E8"/>
<path opacity="0.2" d="M295.793 617.214C291.902 607.274 303.817 591.864 320.803 586.797C335.42 582.437 349.615 582.983 353.504 593.32C356.945 602.463 345.909 612.323 333.261 617.414C320.613 622.504 299.685 627.154 295.793 617.214Z" fill="#98C3E8"/>
<path opacity="0.2" d="M471.575 566.548C463.481 547.518 489.281 505.233 524.576 495.548C554.945 487.214 603.985 504.258 612.075 524.048C619.232 541.553 572.356 538.658 546.077 548.391C519.798 558.124 479.67 585.577 471.575 566.548Z" fill="#98C3E8"/>
<mask id="mask0_467_6161" style="mask-type:alpha" maskUnits="userSpaceOnUse" x="20" y="64" width="648" height="490">
<path d="M606.962 76.944C466.39 14.8686 410.042 197.479 315.141 230.023C220.694 276.339 127.118 228.084 71.3641 273.416C-17.0125 345.272 25.8608 465.217 85.0062 514.485C169.824 585.139 316.342 554.544 466.39 471.093C654.38 366.539 730.22 131.374 606.962 76.944Z" fill="#98C3E8"/>
</mask>
<g mask="url(#mask0_467_6161)">
<rect x="-85.082" y="-16.5977" width="805.162" height="681.485" fill="url(#paint0_linear_467_6161)"/>
<path d="M16.5075 200.467C90.3351 237.696 172.997 341.904 172.997 391.661C172.997 452.869 43.2201 546.678 -16.3047 599.893L491.654 632.705C473.565 551.726 427.893 371.7 455.687 331.716C491.654 279.974 637.206 292.594 718.815 302.059L740.901 71.7421C701.147 88.3586 612.176 136.105 563.588 123.484C518.614 111.803 432.339 61.4357 395.741 29.4648" stroke="white" stroke-opacity="0.2" stroke-width="15"/>
<path d="M206.441 143.676C226.634 248.843 281.531 441.636 339.583 371.468C412.149 283.759 469.57 170.178 523.837 245.267C567.25 305.339 631.107 423.842 657.61 475.584" stroke="white" stroke-opacity="0.2" stroke-width="15"/>
<path d="M277 464C281.418 464 285 467.582 285 472C285 476.418 281.418 480 277 480C272.582 480 269 476.418 269 472C269 467.582 272.582 464 277 464ZM103 362C107.418 362 111 365.582 111 370C111 374.418 107.418 378 103 378C98.5817 378 95 374.418 95 370C95 365.582 98.5817 362 103 362ZM551 346C555.418 346 559 349.582 559 354C559 358.418 555.418 362 551 362C546.582 362 543 358.418 543 354C543 349.582 546.582 346 551 346ZM426 197C430.418 197 434 200.582 434 205C434 209.418 430.418 213 426 213C421.582 213 418 209.418 418 205C418 200.582 421.582 197 426 197Z" fill="white" fill-opacity="0.6"/>
<circle cx="73" cy="457" r="18" stroke="white" stroke-opacity="0.4" stroke-width="8"/>
<circle cx="653" cy="180" r="18" stroke="white" stroke-opacity="0.4" stroke-width="8"/>
<circle cx="403" cy="413" r="18" stroke="white" stroke-opacity="0.4" stroke-width="8"/>
</g>
<g filter="url(#filter0_d_467_6161)">
<rect x="453" y="134" width="88" height="88" rx="10" fill="white"/>
</g>
<g clip-path="url(#clip0_467_6161)">
<path d="M493 194V182H501V194H511V178H517L497 160L477 178H483V194H493Z" fill="#5A98D0"/>
</g>
<g filter="url(#filter1_d_467_6161)">
<path d="M440.421 10.7559H412.991C409.205 10.7559 406.137 13.0416 406.137 15.8613V36.2945C406.137 39.1141 409.205 41.3999 412.991 41.3999H440.421C444.206 41.3999 447.275 39.1141 447.275 36.2945V15.8613C447.275 13.0416 444.206 10.7559 440.421 10.7559Z" fill="#56CCF2"/>
</g>
<g clip-path="url(#clip1_467_6161)">
<path d="M437 25.0063H432.83L436.07 22.5761L434.66 21.5111L430 25.0063H428V23.5062L432.66 20.011L431.24 18.9534L428 21.3836V18.2559H426V21.3836L422.76 18.9534L421.34 20.011L426 23.5062V25.0063H424L419.34 21.5111L417.93 22.5761L421.17 25.0063H417V26.5064H421.17L417.93 28.9366L419.34 30.0016L424 26.5064H426V28.0065L421.34 31.5017L422.76 32.5593L426 30.1291V33.2568H428V30.1291L431.24 32.5593L432.66 31.5017L428 28.0065V26.5064H430L434.66 30.0016L436.07 28.9366L432.83 26.5064H437V25.0063Z" fill="white"/>
</g>
<g filter="url(#filter2_d_467_6161)">
<path d="M614.284 88.0117H586.854C583.069 88.0117 580 90.2975 580 93.1172V113.55C580 116.37 583.069 118.656 586.854 118.656H614.284C618.07 118.656 621.138 116.37 621.138 113.55V93.1172C621.138 90.2975 618.07 88.0117 614.284 88.0117Z" fill="#F2C94C"/>
</g>
<path d="M610 100.762C610 97.0119 606 94.0117 601 94.0117C596 94.0117 592 97.0119 592 100.762C592 103.087 593.6 105.187 596 106.388V108.263C596 109.238 596.8 110.063 598 110.363V110.513C598 111.788 599.3 112.763 601 112.763C602.7 112.763 604 111.788 604 110.513V110.363C605.2 110.063 606 109.238 606 108.263V106.388C608.4 105.187 610 103.087 610 100.762ZM594 100.762C594 97.837 597.1 95.5118 601 95.5118C604.9 95.5118 608 97.837 608 100.762C608 103.387 605.4 105.562 602 105.937V104.062L603.7 102.787C604.1 102.487 604.1 102.037 603.7 101.737C603.3 101.437 602.7 101.437 602.3 101.737L601 102.712L599.7 101.737C599.3 101.437 598.7 101.437 598.3 101.737C597.9 102.037 597.9 102.487 598.3 102.787L600 104.062V105.937C596.6 105.562 594 103.387 594 100.762ZM601 111.263C600.4 111.263 600 110.963 600 110.513H602C602 110.963 601.6 111.263 601 111.263ZM604 108.263C604 108.713 603.6 109.013 603 109.013H599C598.4 109.013 598 108.713 598 108.263V107.138C598.9 107.363 599.9 107.513 601 107.513C602.1 107.513 603.1 107.363 604 107.138V108.263Z" fill="white"/>
<g filter="url(#filter3_d_467_6161)">
<path d="M394.284 88.0117H366.854C363.069 88.0117 360 90.2975 360 93.1172V113.55C360 116.37 363.069 118.656 366.854 118.656H394.284C398.07 118.656 401.138 116.37 401.138 113.55V93.1172C401.138 90.2975 398.07 88.0117 394.284 88.0117Z" fill="#F58A8A"/>
</g>
<g clip-path="url(#clip2_467_6161)">
<path d="M387 100.012H386V98.512C386 96.4418 383.76 94.7617 381 94.7617C378.24 94.7617 376 96.4418 376 98.512V100.012H375C373.9 100.012 373 100.687 373 101.512V109.013C373 109.838 373.9 110.513 375 110.513H387C388.1 110.513 389 109.838 389 109.013V101.512C389 100.687 388.1 100.012 387 100.012ZM381 106.762C379.9 106.762 379 106.087 379 105.262C379 104.437 379.9 103.762 381 103.762C382.1 103.762 383 104.437 383 105.262C383 106.087 382.1 106.762 381 106.762ZM384.1 100.012H377.9V98.512C377.9 97.2294 379.29 96.1868 381 96.1868C382.71 96.1868 384.1 97.2294 384.1 98.512V100.012Z" fill="white"/>
</g>
<g filter="url(#filter4_d_467_6161)">
<path d="M568.284 10.7559H540.854C537.069 10.7559 534 13.0416 534 15.8613V36.2945C534 39.1141 537.069 41.3999 540.854 41.3999H568.284C572.07 41.3999 575.138 39.1141 575.138 36.2945V15.8613C575.138 13.0416 572.07 10.7559 568.284 10.7559Z" fill="#6FCF97"/>
</g>
<path d="M560.312 21.9277H543.98V29.5834H560.312V21.9277Z" fill="white"/>
<path d="M564.714 23.4512L561.109 24.5876V26.9559L564.714 28.0923H566.021V23.4512H564.714Z" fill="white"/>
<path d="M500.39 217C499.274 221.364 500.787 223.88 501.978 224.5C504.34 225.73 506.977 227.27 506.977 227.27C506.977 227.27 523.406 255.414 528.168 257.429C533.724 259.778 546.422 261 546.422 261L551.978 249.889C551.978 249.889 539.279 247.111 533.724 245.921C529.98 245.118 513.486 227.27 513.486 227.27L516.66 221.714H510.708C506.343 218.54 503.977 212 503.977 212C503.977 212 501.153 214.02 500.39 217Z" fill="url(#paint1_linear_467_6161)"/>
<path d="M565.477 267.5C563.477 265.5 551.977 262.333 546.477 261L551.977 250C554.143 250 560.477 249.5 568.477 247.5C578.477 245 581.977 236 593.477 245.5C602.677 253.1 618.643 286.333 625.477 302C614.73 312.242 607.593 315.568 593.477 318.5C592.643 316.833 590.177 311.2 586.977 302C582.977 290.5 570.477 290.5 568.477 286.5C566.477 282.5 567.977 270 565.477 267.5Z" fill="url(#paint2_linear_467_6161)"/>
<path d="M601.477 381C597.877 373 597.81 335 596.477 317.5C608.671 315.103 615.11 312.016 625.477 301.5C625.477 301.5 642.477 309.5 641.477 328C640.477 346.5 647.997 355.841 652.477 362C656.477 367.5 665.977 379.167 670.977 387L665.977 396.5C660.477 390.667 644.377 378.8 635.977 372C627.577 365.2 624.81 348.167 623.477 339C622.643 348.667 618.477 366.4 620.477 372C622.477 377.6 643.977 394.5 652.477 403L649.477 411.5C634.977 404.667 605.077 389 601.477 381Z" fill="url(#paint3_linear_467_6161)"/>
<path d="M559.476 233.5C559.876 231.9 559.31 227.167 559.977 225.5C564.777 226.3 567.476 229.667 568.476 231C569.476 230.833 570.911 230.369 571.476 231.5C571.976 232.5 571.476 234.5 569.976 236L573.476 245.5C571.818 246.577 570.808 246.939 568.976 247.5C569.976 245 569.476 243 568.976 242C565.376 244.8 563.976 244.667 562.476 244.5L560.976 238L558.477 238.5C558.977 237.667 559.076 235.1 559.476 233.5Z" fill="url(#paint4_linear_467_6161)"/>
<path d="M568.479 230.999C566.479 228.199 561.646 226.166 559.479 225.499C555.479 222.499 557.479 215.999 566.979 212.999C576.479 209.999 580.479 217.999 582.479 219.999C584.479 221.999 585.479 228.499 594.479 232.499C603.479 236.499 602.979 231.499 608.479 231.499C613.979 231.499 616.479 234.999 615.479 237.999C614.479 240.999 613.979 244.499 619.979 248.499C625.979 252.499 620.479 257.999 619.979 263.999C619.479 269.999 611.479 266.999 602.979 266.999C594.479 266.999 595.979 266.999 594.479 261.499C592.979 255.999 590.479 253.999 587.479 252.499C584.479 250.999 577.479 251.999 575.979 250.499C574.779 249.299 571.479 240.333 569.979 235.999C570.646 234.999 571.879 232.699 571.479 231.499C571.079 230.299 569.312 230.666 568.479 230.999Z" fill="#F2994A"/>
<path d="M549.477 291.5L573.477 290C576.277 290.4 580.977 293.833 582.977 295.5C582.31 297 580.377 300 577.977 300C575.577 300 557.977 297 549.477 295.5H547.477V288L549.477 291.5Z" fill="url(#paint5_linear_467_6161)"/>
<path d="M547.477 299V282H538.977V299H547.477Z" fill="#F2C94C"/>
<path d="M665.977 425.5C663.577 425.1 653.81 415.833 649.477 411.5L652.477 403C654.477 403.833 658.677 405.3 659.477 406.5C660.477 408 668.977 426 665.977 425.5Z" fill="#5A98D0"/>
<path d="M677.977 414.5C676.777 412.5 669.477 402.833 665.977 396.5L670.977 387C673.31 389 673.477 389 675.977 392.5C677.139 394.127 679.477 417 677.977 414.5Z" fill="#5A98D0"/>
<path opacity="0.2" d="M626.477 324.5L623.477 339.5C623.977 345 626.977 358.5 631.977 368C625.977 349 627.977 334.833 626.477 324.5Z" fill="black"/>
<path d="M196 549L194.5 544L202.5 542.5C206.333 544.5 213.7 548.9 212.5 550.5C212.1 551.3 201.333 549.833 196 549Z" fill="#D06262"/>
<path d="M155.5 502L160 509.5C159.667 514.667 158.6 524.8 157 524C155.4 523.2 150.333 510.333 148 504L155.5 502Z" fill="#D06262"/>
<path d="M129.33 456.994C124.001 451.459 119.158 441.025 117.403 436.5C122.531 434.02 133.926 428.352 138.486 425.523C143.046 422.693 151.695 416.274 155.449 413.418C157.639 415.393 164.012 420.263 171.983 423.948C192.454 433.614 204.147 446.095 208.187 457.272C211.42 466.214 198.177 479.449 190.653 484.995C186.294 477.587 183.671 474.591 178.503 467.534L180.259 459.339L169.935 456.272C171.461 458.307 176.463 465.011 184.26 475.541C198.33 493.126 203.202 523.173 203.88 535.998C201.255 536.574 194.792 537.637 189.939 537.28C189.366 531.05 181.56 517.211 174.108 504.96C172.592 506.774 170.491 508.942 169.267 509.055C163.072 507.214 161.153 499.089 160.968 495.257L165.65 491.335C165.008 490.311 164.408 489.349 163.858 488.464C156.195 476.114 135.992 463.913 129.33 456.994Z" fill="#1F3F68"/>
<path d="M157.349 412.239C142.815 423.451 112.73 443.558 108.664 434.291C103.582 422.708 104.578 422.616 101.768 419.36C98.9575 416.104 98.2705 408.635 96.9999 405.739C96.3614 404.284 91.213 397.917 87.0973 390.081C87.0973 390.081 86.9736 389.854 86.7645 389.439C83.8425 383.737 81.5348 377.321 81.9145 371.477C82.2049 362.914 88.7182 357.392 88.7182 357.392C92.6 353.253 96.2409 352.558 97.502 352.67L97.5253 352.686C100.56 354.75 105.047 357.801 106.636 357.655C108.23 357.508 110.502 354.5 112.002 353C119.608 353.807 121.931 351.859 127.876 352.67C135.207 353.67 155.002 364 170.502 336.5C172.042 336.861 175.512 338.229 178.002 338C169.502 363 162.002 370.782 155.002 373.232C149.63 375.112 145.397 375.636 142.054 375.602C141.44 378.864 140.625 384.225 139.265 389.692C142.06 394.807 145.014 399.506 147.334 401.612C153.36 407.083 160.165 410.103 157.349 412.239Z" fill="white"/>
<path d="M157.062 441.89L170.477 456.724L180.258 459.339L179.674 463.911C181.919 461.027 184.797 454.101 178.346 449.472C171.895 444.844 161.469 442.489 157.062 441.89Z" fill="black" fill-opacity="0.2"/>
<path d="M165.625 491.313L173.923 505.111L172.567 506.742C171.342 504.344 168.126 502.13 165.408 499.869C163.233 498.061 162.777 494.923 162.821 493.58L165.625 491.313Z" fill="black" fill-opacity="0.2"/>
<path d="M127.067 416.029C112.87 414.523 95.6038 399.675 88.7456 392.439C104.604 406.546 123.032 410.374 128.87 408.331C133.54 406.696 137.12 394.527 139.001 389.5L142.799 396.003C143.471 403.306 141.265 417.534 127.067 416.029Z" fill="black" fill-opacity="0.2"/>
<path d="M121.967 387.877C118.82 388.453 110.674 381.552 107.019 378.206C120.474 388.015 120.5 383 137.5 371C136.762 372.072 129.5 386.5 121.967 387.877Z" fill="black" fill-opacity="0.2"/>
<path d="M142.5 373.5C140.787 373.156 139.296 372.576 137.5 371L139 367.5C138.833 366.667 138.6 364.8 139 364C139.4 363.2 141 362.333 141.5 362L141 364.5L143.5 361.5L147.5 365L147 368.5L144 370L142.5 373.5Z" fill="#F2994A"/>
<path d="M179 333L178 338C176.4 338.4 172.167 337.167 170.5 336.5C171 335 172.6 331 173 329C173.4 327 177.167 324.833 179 324H181L179 327.5V333Z" fill="#F2994A"/>
<path d="M95.0007 342.5C95.8007 344.1 98.0007 347.5 99.0007 349C99.6674 347.667 100.601 344.7 99.0007 343.5C97.4007 342.3 96.0007 340.333 95.5007 339.5C96.0007 339.167 97.3007 338.5 98.5007 338.5C97.7007 332.5 101.834 330.333 104.001 330L112.501 329.5L113.001 332C116.167 329 121.901 322.5 119.501 320.5C116.501 318 107.501 324.5 101.501 324.5C95.5007 324.5 93.0007 327.5 91.5007 330.5C90.0007 333.5 94.0007 340.5 95.0007 342.5Z" fill="#316099"/>
<path d="M106.5 358C104.9 358 100.333 354.833 97.5 353C98.8333 352.333 99.5 349.8 99.5 349C99.5 348 100.5 344 99.5 343.5C98.5 343 95.5 341 95.5 340C95.5 339.2 97.5 339 98.5 339C98.1667 337.333 98.1 333.5 100.5 331.5C102.9 329.5 109.5 329.333 112.5 329.5C112.667 330.167 113.3 333 114.5 339C115.7 345 113 347.833 111.5 348.5L112 353C110.833 354.5 108.1 358 106.5 358Z" fill="#F2994A"/>
<path d="M202.5 542.5L202 536.5C198.469 537.446 196.371 537.613 192.5 537.5L194.5 544L202.5 542.5Z" fill="#98C3E8"/>
<path d="M160 509.5L166 507.5C163.322 504.423 162.421 502.668 161.5 499.5L155.5 502L160 509.5Z" fill="#98C3E8"/>
<rect opacity="0.8" x="187" y="262" width="266.284" height="189.301" rx="5" fill="url(#paint6_linear_467_6161)"/>
<path d="M187 267C187 264.239 189.239 262 192 262H263.983V451.301H192C189.239 451.301 187 449.063 187 446.301V267Z" fill="white"/>
<circle cx="199" cy="274" r="4" fill="#FA9595"/>
<circle cx="212" cy="274" r="4" fill="#FDF397"/>
<circle cx="224" cy="274" r="4" fill="#C1FEBB"/>
<path opacity="0.4" d="M235 405H196V398H235V405ZM254 389H196V382H254V389ZM254 375H196V368H254V375Z" fill="#5A98D0"/>
<path opacity="0.1" d="M412 324H373V317H412V324ZM431 308H373V301H431V308ZM431 294H373V287H431V294Z" fill="black"/>
<g filter="url(#filter5_d_467_6161)">
<rect x="179" y="288" width="81" height="50" rx="5" fill="#56CCF2"/>
</g>
<path d="M203.344 310.136C202.688 309.24 201.76 308.792 200.544 308.792C199.44 308.792 198.512 309.192 197.728 310.008C196.944 310.824 196.56 311.816 196.56 313C196.56 314.168 196.944 315.176 197.728 315.992C198.512 316.808 199.44 317.208 200.544 317.208C201.76 317.208 202.688 316.76 203.344 315.848V317H205.072V309H203.344V310.136ZM199.008 314.84C198.528 314.344 198.288 313.736 198.288 313C198.288 312.264 198.528 311.656 199.008 311.176C199.488 310.68 200.096 310.44 200.816 310.44C201.536 310.44 202.144 310.68 202.624 311.176C203.104 311.656 203.344 312.264 203.344 313C203.344 313.736 203.104 314.344 202.624 314.84C202.144 315.32 201.536 315.56 200.816 315.56C200.096 315.56 199.488 315.32 199.008 314.84ZM212.078 305.592C209.71 305.448 208.462 306.648 208.462 308.84V309H207.246V310.664H208.462V317H210.19V310.664H212.078V309H210.19V308.84C210.19 307.672 210.814 307.144 212.078 307.256V305.592ZM215.617 309H213.889V317H215.617V312.968C215.617 312.152 215.857 311.56 216.353 311.208C216.849 310.84 217.425 310.68 218.081 310.728V308.856C216.881 308.856 216.049 309.352 215.617 310.344V309ZM221.79 307.48C222.238 307.032 222.238 306.36 221.806 305.928C221.374 305.48 220.67 305.48 220.238 305.928C219.806 306.36 219.806 307.032 220.238 307.48C220.686 307.912 221.358 307.912 221.79 307.48ZM221.886 317V309H220.158V317H221.886ZM231.028 310.136C230.372 309.24 229.444 308.792 228.228 308.792C227.124 308.792 226.196 309.192 225.412 310.008C224.628 310.824 224.244 311.816 224.244 313C224.244 314.168 224.628 315.176 225.412 315.992C226.196 316.808 227.124 317.208 228.228 317.208C229.444 317.208 230.372 316.76 231.028 315.848V317H232.756V309H231.028V310.136ZM226.692 314.84C226.212 314.344 225.972 313.736 225.972 313C225.972 312.264 226.212 311.656 226.692 311.176C227.172 310.68 227.78 310.44 228.5 310.44C229.22 310.44 229.828 310.68 230.308 311.176C230.788 311.656 231.028 312.264 231.028 313C231.028 313.736 230.788 314.344 230.308 314.84C229.828 315.32 229.22 315.56 228.5 315.56C227.78 315.56 227.172 315.32 226.692 314.84ZM239.779 308.792C238.643 308.792 237.827 309.208 237.299 310.024V309H235.571V317H237.299V312.712C237.299 311.16 238.115 310.408 239.331 310.408C240.435 310.408 241.123 311.064 241.123 312.264V317H242.851V312.088C242.851 310.04 241.619 308.792 239.779 308.792Z" fill="white"/>
<rect x="281" y="280" width="79" height="77" rx="5" fill="#EB5757"/>
<g clip-path="url(#clip3_467_6161)">
<path d="M312 305V333L334 319L312 305Z" fill="white"/>
</g>
<g filter="url(#filter6_d_467_6161)">
<rect x="281" y="370" width="154" height="63" rx="5" fill="#6FCF97"/>
</g>
<path d="M294.5 415C304 408.5 308 400 326 400C344 400 345.58 410 356.5 410C369.5 410 382 390.5 396 390.5C410 390.5 413.5 400.5 421 401" stroke="black" stroke-opacity="0.1" stroke-width="2" stroke-linecap="round" stroke-linejoin="round"/>
<path d="M294 415.5C303.5 409 306 390 324 390C342 390 346.08 406.5 357 406.5C370 406.5 381.5 379.5 395.5 379.5C409.5 379.5 414 400.5 421.5 401" stroke="white" stroke-width="2" stroke-linecap="round" stroke-linejoin="round"/>
<defs>
<filter id="filter0_d_467_6161" x="403" y="84" width="188" height="188" filterUnits="userSpaceOnUse" color-interpolation-filters="sRGB">
<feFlood flood-opacity="0" result="BackgroundImageFix"/>
<feColorMatrix in="SourceAlpha" type="matrix" values="0 0 0 0 0 0 0 0 0 0 0 0 0 0 0 0 0 0 127 0" result="hardAlpha"/>
<feOffset/>
<feGaussianBlur stdDeviation="25"/>
<feColorMatrix type="matrix" values="0 0 0 0 0.0627451 0 0 0 0 0.439216 0 0 0 0 0.694118 0 0 0 0.25 0"/>
<feBlend mode="normal" in2="BackgroundImageFix" result="effect1_dropShadow_467_6161"/>
<feBlend mode="normal" in="SourceGraphic" in2="effect1_dropShadow_467_6161" result="shape"/>
</filter>
<filter id="filter1_d_467_6161" x="396.137" y="0.755859" width="71.1367" height="60.6445" filterUnits="userSpaceOnUse" color-interpolation-filters="sRGB">
<feFlood flood-opacity="0" result="BackgroundImageFix"/>
<feColorMatrix in="SourceAlpha" type="matrix" values="0 0 0 0 0 0 0 0 0 0 0 0 0 0 0 0 0 0 127 0" result="hardAlpha"/>
<feOffset dx="5" dy="5"/>
<feGaussianBlur stdDeviation="7.5"/>
<feColorMatrix type="matrix" values="0 0 0 0 0 0 0 0 0 0 0 0 0 0 0 0 0 0 0.15 0"/>
<feBlend mode="normal" in2="BackgroundImageFix" result="effect1_dropShadow_467_6161"/>
<feBlend mode="normal" in="SourceGraphic" in2="effect1_dropShadow_467_6161" result="shape"/>
</filter>
<filter id="filter2_d_467_6161" x="570" y="78.0117" width="71.1367" height="60.6445" filterUnits="userSpaceOnUse" color-interpolation-filters="sRGB">
<feFlood flood-opacity="0" result="BackgroundImageFix"/>
<feColorMatrix in="SourceAlpha" type="matrix" values="0 0 0 0 0 0 0 0 0 0 0 0 0 0 0 0 0 0 127 0" result="hardAlpha"/>
<feOffset dx="5" dy="5"/>
<feGaussianBlur stdDeviation="7.5"/>
<feColorMatrix type="matrix" values="0 0 0 0 0 0 0 0 0 0 0 0 0 0 0 0 0 0 0.15 0"/>
<feBlend mode="normal" in2="BackgroundImageFix" result="effect1_dropShadow_467_6161"/>
<feBlend mode="normal" in="SourceGraphic" in2="effect1_dropShadow_467_6161" result="shape"/>
</filter>
<filter id="filter3_d_467_6161" x="350" y="78.0117" width="71.1367" height="60.6445" filterUnits="userSpaceOnUse" color-interpolation-filters="sRGB">
<feFlood flood-opacity="0" result="BackgroundImageFix"/>
<feColorMatrix in="SourceAlpha" type="matrix" values="0 0 0 0 0 0 0 0 0 0 0 0 0 0 0 0 0 0 127 0" result="hardAlpha"/>
<feOffset dx="5" dy="5"/>
<feGaussianBlur stdDeviation="7.5"/>
<feColorMatrix type="matrix" values="0 0 0 0 0 0 0 0 0 0 0 0 0 0 0 0 0 0 0.15 0"/>
<feBlend mode="normal" in2="BackgroundImageFix" result="effect1_dropShadow_467_6161"/>
<feBlend mode="normal" in="SourceGraphic" in2="effect1_dropShadow_467_6161" result="shape"/>
</filter>
<filter id="filter4_d_467_6161" x="524" y="0.755859" width="71.1367" height="60.6445" filterUnits="userSpaceOnUse" color-interpolation-filters="sRGB">
<feFlood flood-opacity="0" result="BackgroundImageFix"/>
<feColorMatrix in="SourceAlpha" type="matrix" values="0 0 0 0 0 0 0 0 0 0 0 0 0 0 0 0 0 0 127 0" result="hardAlpha"/>
<feOffset dx="5" dy="5"/>
<feGaussianBlur stdDeviation="7.5"/>
<feColorMatrix type="matrix" values="0 0 0 0 0 0 0 0 0 0 0 0 0 0 0 0 0 0 0.15 0"/>
<feBlend mode="normal" in2="BackgroundImageFix" result="effect1_dropShadow_467_6161"/>
<feBlend mode="normal" in="SourceGraphic" in2="effect1_dropShadow_467_6161" result="shape"/>
</filter>
<filter id="filter5_d_467_6161" x="174" y="283" width="101" height="70" filterUnits="userSpaceOnUse" color-interpolation-filters="sRGB">
<feFlood flood-opacity="0" result="BackgroundImageFix"/>
<feColorMatrix in="SourceAlpha" type="matrix" values="0 0 0 0 0 0 0 0 0 0 0 0 0 0 0 0 0 0 127 0" result="hardAlpha"/>
<feOffset dx="5" dy="5"/>
<feGaussianBlur stdDeviation="5"/>
<feColorMatrix type="matrix" values="0 0 0 0 0.0627451 0 0 0 0 0.439216 0 0 0 0 0.694118 0 0 0 0.2 0"/>
<feBlend mode="normal" in2="BackgroundImageFix" result="effect1_dropShadow_467_6161"/>
<feBlend mode="normal" in="SourceGraphic" in2="effect1_dropShadow_467_6161" result="shape"/>
</filter>
<filter id="filter6_d_467_6161" x="271" y="364" width="174" height="83" filterUnits="userSpaceOnUse" color-interpolation-filters="sRGB">
<feFlood flood-opacity="0" result="BackgroundImageFix"/>
<feColorMatrix in="SourceAlpha" type="matrix" values="0 0 0 0 0 0 0 0 0 0 0 0 0 0 0 0 0 0 127 0" result="hardAlpha"/>
<feOffset dy="4"/>
<feGaussianBlur stdDeviation="5"/>
<feColorMatrix type="matrix" values="0 0 0 0 0.435294 0 0 0 0 0.811765 0 0 0 0 0.592157 0 0 0 0.2 0"/>
<feBlend mode="normal" in2="BackgroundImageFix" result="effect1_dropShadow_467_6161"/>
<feBlend mode="normal" in="SourceGraphic" in2="effect1_dropShadow_467_6161" result="shape"/>
</filter>
<linearGradient id="paint0_linear_467_6161" x1="375.616" y1="-62.3181" x2="337.793" y2="608.507" gradientUnits="userSpaceOnUse">
<stop stop-color="#D1ECFF"/>
<stop offset="1" stop-color="#1070B1"/>
</linearGradient>
<linearGradient id="paint1_linear_467_6161" x1="559.735" y1="224.576" x2="507.964" y2="258.395" gradientUnits="userSpaceOnUse">
<stop stop-color="#FFF8E1"/>
<stop offset="1" stop-color="#FFCC80"/>
</linearGradient>
<linearGradient id="paint2_linear_467_6161" x1="585.977" y1="241.24" x2="585.977" y2="318.5" gradientUnits="userSpaceOnUse">
<stop stop-color="#AF6CED"/>
<stop offset="1" stop-color="#5E199D"/>
</linearGradient>
<linearGradient id="paint3_linear_467_6161" x1="633.727" y1="301.5" x2="633.727" y2="411.5" gradientUnits="userSpaceOnUse">
<stop stop-color="#EB5757"/>
<stop offset="1" stop-color="#872727"/>
</linearGradient>
<linearGradient id="paint4_linear_467_6161" x1="575.715" y1="231.146" x2="557.594" y2="238.755" gradientUnits="userSpaceOnUse">
<stop stop-color="#FFF8E1"/>
<stop offset="1" stop-color="#FFCC80"/>
</linearGradient>
<linearGradient id="paint5_linear_467_6161" x1="588.275" y1="291.08" x2="576.595" y2="312.359" gradientUnits="userSpaceOnUse">
<stop stop-color="#FFF8E1"/>
<stop offset="1" stop-color="#FFCC80"/>
</linearGradient>
<linearGradient id="paint6_linear_467_6161" x1="193.393" y1="331.155" x2="498.893" y2="364.655" gradientUnits="userSpaceOnUse">
<stop offset="0.127122" stop-color="white"/>
<stop offset="0.972261" stop-color="white" stop-opacity="0.8"/>
</linearGradient>
<clipPath id="clip0_467_6161">
<rect width="48" height="48" fill="white" transform="translate(473 154)"/>
</clipPath>
<clipPath id="clip1_467_6161">
<rect width="24" height="18.0012" fill="white" transform="translate(415 16.7559)"/>
</clipPath>
<clipPath id="clip2_467_6161">
<rect width="24" height="18.0012" fill="white" transform="translate(369 94.0117)"/>
</clipPath>
<clipPath id="clip3_467_6161">
<rect width="48" height="48" fill="white" transform="translate(296 295)"/>
</clipPath>
</defs>
</svg>
